HIERARCHY
ROOT Hips
{
	OFFSET -0.001795 -0.223333 0.028219
	CHANNELS 6 Xposition Yposition Zposition Zrotation Yrotation Xrotation
	JOINT LeftUpLeg
	{
		OFFSET 0.069520 -0.091406 -0.006815
		CHANNELS 3 Zrotation Yrotation Xrotation
		JOINT LeftLeg
		{
			OFFSET 0.034277 -0.375199 -0.004496
			CHANNELS 3 Zrotation Yrotation Xrotation
			JOINT LeftFoot
			{
				OFFSET -0.013596 -0.397961 -0.043693
				CHANNELS 3 Zrotation Yrotation Xrotation
				JOINT LeftToe
				{
					OFFSET 0.026358 -0.055791 0.119288
					CHANNELS 3 Zrotation Yrotation Xrotation
					End Site
					{
						OFFSET 0.000000 0.000000 0.000000
					}
				}
			}
		}
	}
	JOINT RightUpLeg
	{
		OFFSET -0.067670 -0.090522 -0.004320
		CHANNELS 3 Zrotation Yrotation Xrotation
		JOINT RightLeg
		{
			OFFSET -0.038290 -0.382569 -0.008850
			CHANNELS 3 Zrotation Yrotation Xrotation
			JOINT RightFoot
			{
				OFFSET 0.015774 -0.398415 -0.042312
				CHANNELS 3 Zrotation Yrotation Xrotation
				JOINT RightToe
				{
					OFFSET -0.025372 -0.048144 0.123348
					CHANNELS 3 Zrotation Yrotation Xrotation
					End Site
					{
						OFFSET 0.000000 0.000000 0.000000
					}
				}
			}
		}
	}
	JOINT Spine
	{
		OFFSET -0.002533 0.108963 -0.026696
		CHANNELS 3 Zrotation Yrotation Xrotation
		JOINT Spine1
		{
			OFFSET 0.005487 0.135180 0.001092
			CHANNELS 3 Zrotation Yrotation Xrotation
			JOINT Spine2
			{
				OFFSET 0.001457 0.052922 0.025425
				CHANNELS 3 Zrotation Yrotation Xrotation
				JOINT Neck
				{
					OFFSET -0.002778 0.213870 -0.042857
					CHANNELS 3 Zrotation Yrotation Xrotation
					JOINT Head
					{
						OFFSET 0.005152 0.064970 0.051349
						CHANNELS 3 Zrotation Yrotation Xrotation
						End Site
						{
							OFFSET 0.000000 0.000000 0.000000
						}
					}
				}
				JOINT LeftShoulder
				{
					OFFSET 0.078845 0.121749 -0.034090
					CHANNELS 3 Zrotation Yrotation Xrotation
					JOINT LeftArm
					{
						OFFSET 0.090977 0.030469 -0.008868
						CHANNELS 3 Zrotation Yrotation Xrotation
						JOINT LeftForeArm
						{
							OFFSET 0.259612 -0.012772 -0.027456
							CHANNELS 3 Zrotation Yrotation Xrotation
							JOINT LeftHand
							{
								OFFSET 0.249234 0.008986 -0.001171
								CHANNELS 3 Zrotation Yrotation Xrotation
								End Site
								{
									OFFSET 0.000000 0.000000 0.000000
								}
							}
						}
					}
				}
				JOINT RightShoulder
				{
					OFFSET -0.081759 0.118833 -0.038615
					CHANNELS 3 Zrotation Yrotation Xrotation
					JOINT RightArm
					{
						OFFSET -0.096012 0.032551 -0.009143
						CHANNELS 3 Zrotation Yrotation Xrotation
						JOINT RightForeArm
						{
							OFFSET -0.253742 -0.013329 -0.021401
							CHANNELS 3 Zrotation Yrotation Xrotation
							JOINT RightHand
							{
								OFFSET -0.255298 0.007772 -0.005559
								CHANNELS 3 Zrotation Yrotation Xrotation
								End Site
								{
									OFFSET 0.000000 0.000000 0.000000
								}
							}
						}
					}
				}
			}
		}
	}
}
MOTION
Frames: 11
Frame Time: 0.050000
0.000000 0.922732 0.000000 -2.131131 13.476809 -5.146946 11.449260 -0.452155 -2.843111 -5.049864 0.285234 10.841913 2.908504 7.959497 4.545385 0.000000 0.000000 0.000000 -3.229799 -0.413671 3.970048 10.129532 -2.381140 11.319481 -19.973239 -36.693739 20.966601 0.000000 0.000000 0.000000 -3.544513 -0.153721 7.279393 6.540887 -0.729861 -24.166668 2.781527 -4.686587 23.467267 -2.435047 2.996356 -11.486240 0.000000 0.000000 0.000000 -12.565606 -5.451961 1.251725 -44.351538 -42.616642 8.561639 107.328305 -74.650051 -86.844998 0.000000 0.000000 0.000000 2.064826 6.343675 2.394217 40.538960 14.484003 -1.178573 -80.628538 49.761680 -35.362813 0.000000 0.000000 0.000000
0.000341 0.921927 0.002707 -2.709440 14.280974 -5.001024 12.436907 -0.530287 -2.611673 -5.603788 0.376077 9.828742 2.661326 7.298056 4.001879 0.000000 0.000000 0.000000 -2.718105 -0.438206 4.078438 10.555907 -2.508954 10.951444 -20.454583 -37.192135 21.521934 0.000000 0.000000 0.000000 -4.489393 -0.092244 5.807644 7.939352 -1.184490 -22.921251 3.201009 -6.230089 22.789355 -1.187644 1.766190 -10.051479 0.000000 0.000000 0.000000 -12.845368 -5.963986 1.637202 -44.749215 -43.154969 9.036256 107.318138 -74.316840 -86.018289 0.000000 0.000000 0.000000 1.778394 7.852874 2.897031 41.364946 13.377541 -1.472119 -83.922992 49.576562 -37.781353 0.000000 0.000000 0.000000
0.000936 0.919457 0.004502 -2.330741 12.528301 -5.447437 11.829591 -0.436005 -2.350575 -5.336949 0.343753 11.502705 3.605189 8.707805 3.378332 0.000000 0.000000 0.000000 -3.397005 -0.462374 4.619780 10.530949 -2.428828 11.224294 -19.230998 -36.360469 19.102999 0.000000 0.000000 0.000000 -4.178156 -0.113363 6.510342 7.802186 -1.078089 -24.465349 2.826599 -3.711752 25.386110 -1.447872 2.445532 -13.338807 0.000000 0.000000 0.000000 -11.712166 -6.457356 1.726917 -47.251010 -47.665318 11.497730 100.265178 -72.908500 -77.644377 0.000000 0.000000 0.000000 2.882534 6.315548 2.471999 40.440367 12.190369 -2.121739 -87.443014 50.463711 -39.849970 0.000000 0.000000 0.000000
0.001309 0.917318 0.005728 -2.379759 13.527318 -5.423179 11.914538 -0.461103 -3.087560 -5.355815 0.293379 12.468569 3.423589 8.033611 2.525793 0.000000 0.000000 0.000000 -3.128306 -0.514550 4.979075 10.435587 -2.421760 10.841117 -19.840178 -37.428480 18.853236 0.000000 0.000000 0.000000 -4.959763 -0.086169 5.977669 8.749544 -1.390075 -23.612105 2.881417 -5.454811 24.989294 -1.157767 1.992934 -12.809467 0.000000 0.000000 0.000000 -11.770625 -6.225571 1.791608 -50.453909 -49.310849 13.682786 94.751700 -76.371138 -75.146448 0.000000 0.000000 0.000000 1.574283 6.730518 2.493090 41.247525 12.180879 -2.064600 -86.723619 48.710128 -38.289691 0.000000 0.000000 0.000000
0.001355 0.914169 0.006652 -2.068917 12.820546 -5.656142 10.939011 -0.396300 -4.074305 -4.290733 0.005177 15.318143 4.039396 8.881076 1.788048 0.000000 0.000000 0.000000 -3.433306 -0.514725 5.130484 10.227963 -2.372633 11.336489 -19.376045 -37.504333 16.951102 0.000000 0.000000 0.000000 -5.313711 -0.083397 6.888626 8.880993 -1.401577 -24.066132 2.961451 -5.211921 25.210487 -1.429812 2.164538 -12.577619 0.000000 0.000000 0.000000 -11.563838 -7.656871 2.489958 -50.695040 -49.922118 14.105505 89.078988 -76.496816 -69.702782 0.000000 0.000000 0.000000 1.984305 6.991406 2.606286 40.290753 11.020033 -2.466613 -87.383865 49.287477 -39.524416 0.000000 0.000000 0.000000
0.000908 0.911408 0.007461 -2.077289 11.551760 -5.499062 10.858452 -0.357745 -4.919332 -4.171233 -0.054969 17.205702 4.776971 10.139098 1.388516 0.000000 0.000000 0.000000 -3.461283 -0.449642 4.638877 10.087269 -2.317886 11.939466 -18.659179 -37.114078 15.006072 0.000000 0.000000 0.000000 -5.422490 -0.070237 6.798521 9.757952 -1.673006 -24.028588 2.949792 -5.203827 25.642848 -1.441397 2.079946 -12.746881 0.000000 0.000000 0.000000 -11.526205 -7.399662 2.516587 -51.526453 -50.364208 14.739747 81.164298 -77.300145 -62.654803 0.000000 0.000000 0.000000 1.338245 6.845731 2.487580 40.756218 11.393897 -2.384359 -89.589376 49.034918 -41.050155 0.000000 0.000000 0.000000
-0.000373 0.910079 0.008763 -1.890228 10.018852 -4.896633 10.511329 -0.324828 -5.461256 -3.884518 -0.085029 17.909712 5.498906 11.574461 1.514648 0.000000 0.000000 0.000000 -3.651301 -0.346488 3.791782 9.918574 -2.219351 12.327115 -17.855490 -36.362333 13.357062 0.000000 0.000000 0.000000 -4.971196 -0.068084 6.608544 9.516701 -1.651897 -23.733773 2.862283 -5.005835 25.603161 -0.823053 1.513726 -12.869365 0.000000 0.000000 0.000000 -11.691871 -7.976765 2.906459 -50.873678 -49.671444 14.189188 76.045490 -77.346640 -57.731059 0.000000 0.000000 0.000000 2.032258 6.526144 2.382853 40.101811 12.125528 -2.169510 -91.706037 47.846711 -41.764133 0.000000 0.000000 0.000000
-0.002505 0.908567 0.011039 -1.567112 8.365210 -3.977010 10.073206 -0.301251 -5.961691 -3.616426 -0.078924 18.115870 6.280538 13.119288 1.655469 0.000000 0.000000 0.000000 -4.083611 -0.245511 3.003610 10.011826 -2.128102 12.099455 -16.936665 -35.497532 11.301469 0.000000 0.000000 0.000000 -4.140590 -0.076970 6.160124 8.866075 -1.502200 -23.599200 3.026119 -4.495617 25.570228 -1.038810 1.578467 -12.058174 0.000000 0.000000 0.000000 -12.385535 -7.744035 2.904778 -50.738216 -47.640501 13.101787 71.229512 -79.567332 -55.023463 0.000000 0.000000 0.000000 2.666666 5.294235 1.927605 40.477531 11.988513 -2.223604 -96.500369 48.245454 -45.799149 0.000000 0.000000 0.000000
-0.005077 0.907274 0.014844 -1.361557 6.175622 -3.298497 9.819670 -0.257687 -5.890686 -3.448540 -0.014368 18.126347 7.233184 15.017025 2.001891 0.000000 0.000000 0.000000 -4.453605 -0.140778 2.134746 10.095220 -2.054027 12.509689 -15.827605 -34.091371 9.394611 0.000000 0.000000 0.000000 -3.627022 -0.086993 6.378394 9.591760 -1.654662 -24.310289 2.481073 -3.451523 25.755201 -0.416203 1.064280 -11.867949 0.000000 0.000000 0.000000 -14.188853 -7.243809 2.761262 -48.507584 -43.898312 10.419293 64.424892 -83.167291 -51.707460 0.000000 0.000000 0.000000 3.557792 4.603188 1.663044 40.732764 11.668798 -2.349064 -100.644158 48.267533 -49.106653 0.000000 0.000000 0.000000
-0.007709 0.904547 0.020071 -1.400400 3.194698 -2.523474 9.852196 -0.197207 -6.944483 -3.493192 0.102721 20.389455 8.585262 17.688420 2.827013 0.000000 0.000000 0.000000 -4.924905 -0.000285 0.790417 10.600625 -2.074548 13.579155 -14.430082 -32.092502 6.966588 0.000000 0.000000 0.000000 -2.010477 -0.175325 7.103670 8.920502 -1.468921 -24.845364 2.736923 -2.737809 24.910303 -1.881242 2.070056 -11.730760 0.000000 0.000000 0.000000 -16.394103 -6.586909 2.683785 -47.015641 -39.526358 8.047040 47.963945 -86.868196 -38.554799 0.000000 0.000000 0.000000 3.104256 4.086545 1.394562 41.616965 10.732422 -2.560643 -104.662481 49.154463 -54.171037 0.000000 0.000000 0.000000
-0.009828 0.901456 0.026569 -1.048164 0.138841 -1.849670 9.485335 -0.155173 -8.754459 -3.771757 0.365701 24.292560 9.976052 20.303436 4.802718 0.000000 0.000000 0.000000 -5.625384 0.092060 0.243931 10.647501 -1.899998 13.632990 -13.067822 -29.997795 3.960944 0.000000 0.000000 0.000000 -0.630502 -0.279213 7.896532 9.172313 -1.507766 -25.406831 1.652121 -1.655716 25.065892 -1.057266 1.376337 -12.254027 0.000000 0.000000 0.000000 -17.415769 -5.953698 2.573363 -44.705280 -35.746129 5.814380 12.617734 -88.552656 -4.925995 0.000000 0.000000 0.000000 4.464301 3.030129 0.910400 40.642652 10.243980 -2.682699 -107.629958 50.823491 -59.429383 0.000000 0.000000 0.000000
